# xmcd
#
# Track frame offsets:
# 150
# 18382
# 34125
# 47007
# 66067
# 73315
# 89560
# 102207
# 114945
# 132537
# 154952
# 171102
# 183775
# 196177
# 210355
#
# Disc length: 2947 seconds
#
# Revision: 1
# Processed by: cddbd v1.5.1PL0 Copyright (c) Steve Scherf et al.
# Submitted via: Axialis_AX_CDPlayer 2.6
#
DISCID=cd0b810f
DTITLE=Multi - Back Porch Blues [King Snake]
DYEAR=1997
DGENRE=Blues
TTITLE0=Bob Nelson - Sugar Mama
TTITLE1=Floyd Miles - Arthritis
TTITLE2=Bill Wharton - Standing In The Fire
TTITLE3=Smokehouse - Credit Card Blues
TTITLE4=Eric Culberson - Dead Cat Luck
TTITLE5=Ace Moreland - Head In The Bottle
TTITLE6=Troy Turner - Whole Lotta Ash
TTITLE7=Mark Hodgson - Flyright
TTITLE8=Bob Nelson - Short Hair Woman
TTITLE9=Jeff Howell - Way Off In That Jazz
TTITLE10=Floyd Miles - Cocky Rooster
TTITLE11=Bill Wharton - Screamin Woman
TTITLE12=Smokehouse - Love Your Jelly (Them Jelly Blues)
TTITLE13=Mark Hodgson - Big Foot Woman
TTITLE14=Ace Moreland - Gates od Hell
EXTD=YEAR: 1997
EXTT0=
EXTT1=
EXTT2=
EXTT3=
EXTT4=
EXTT5=
EXTT6=
EXTT7=
EXTT8=
EXTT9=
EXTT10=
EXTT11=
EXTT12=
EXTT13=
EXTT14=
PLAYORDER=
